<?xml version="1.0" encoding="UTF-8" standalone="no"?>
<!-- Created with Inkscape (http://www.inkscape.org/) -->

<svg
   width="512"
   height="512"
   viewBox="0 0 135.46666 135.46667"
   version="1.1"
   id="svg1"
   inkscape:version="1.3 (0e150ed6c4, 2023-07-21)"
   sodipodi:docname="homepage_filter.svg"
   xml:space="preserve"
   xmlns:inkscape="http://www.inkscape.org/namespaces/inkscape"
   xmlns:sodipodi="http://sodipodi.sourceforge.net/DTD/sodipodi-0.dtd"
   xmlns:xlink="http://www.w3.org/1999/xlink"
   xmlns="http://www.w3.org/2000/svg"
   xmlns:svg="http://www.w3.org/2000/svg"><sodipodi:namedview
     id="namedview1"
     pagecolor="#ffffff"
     bordercolor="#000000"
     borderopacity="0.25"
     inkscape:showpageshadow="2"
     inkscape:pageopacity="0.0"
     inkscape:pagecheckerboard="0"
     inkscape:deskcolor="#d1d1d1"
     inkscape:document-units="mm"
     inkscape:zoom="1.0369529"
     inkscape:cx="173.58552"
     inkscape:cy="211.19571"
     inkscape:window-width="1952"
     inkscape:window-height="992"
     inkscape:window-x="0"
     inkscape:window-y="0"
     inkscape:window-maximized="0"
     inkscape:current-layer="layer1" /><defs
     id="defs1"><linearGradient
       id="linearGradient23"
       inkscape:collect="always"><stop
         style="stop-color:#a25ba3;stop-opacity:1;"
         offset="0"
         id="stop22" /><stop
         style="stop-color:#ffffff;stop-opacity:1;"
         offset="1"
         id="stop23" /></linearGradient><linearGradient
       id="linearGradient21"
       inkscape:collect="always"><stop
         style="stop-color:#5ba35f;stop-opacity:1;"
         offset="0"
         id="stop20" /><stop
         style="stop-color:#ffffff;stop-opacity:1;"
         offset="1"
         id="stop21" /></linearGradient><linearGradient
       id="linearGradient17"
       inkscape:collect="always"><stop
         style="stop-color:#a35f5b;stop-opacity:1;"
         offset="0"
         id="stop16" /><stop
         style="stop-color:#ffffff;stop-opacity:1;"
         offset="1"
         id="stop17" /></linearGradient><linearGradient
       id="linearGradient15"
       inkscape:collect="always"><stop
         style="stop-color:#5b60a3;stop-opacity:1;"
         offset="0"
         id="stop14" /><stop
         style="stop-color:#ffffff;stop-opacity:1;"
         offset="1"
         id="stop15" /></linearGradient><linearGradient
       id="linearGradient9"
       inkscape:collect="always"><stop
         style="stop-color:#a39e5b;stop-opacity:1;"
         offset="0"
         id="stop9" /><stop
         style="stop-color:#ffffff;stop-opacity:1;"
         offset="1"
         id="stop10" /></linearGradient><linearGradient
       inkscape:collect="always"
       xlink:href="#linearGradient9"
       id="linearGradient10"
       x1="154.1134"
       y1="56.389175"
       x2="176.56702"
       y2="30.618557"
       gradientUnits="userSpaceOnUse"
       gradientTransform="rotate(15.319639,160.36511,-251.68392)" /><linearGradient
       inkscape:collect="always"
       xlink:href="#linearGradient17"
       id="linearGradient13"
       gradientUnits="userSpaceOnUse"
       x1="154.1134"
       y1="56.389175"
       x2="176.56702"
       y2="30.618557"
       gradientTransform="rotate(-19.990613,17.042328,311.40042)" /><linearGradient
       inkscape:collect="always"
       xlink:href="#linearGradient15"
       id="linearGradient14"
       gradientUnits="userSpaceOnUse"
       x1="154.1134"
       y1="56.389175"
       x2="176.56702"
       y2="30.618557"
       gradientTransform="rotate(-15.669748,-6.9243863,481.25001)" /><filter
       style="color-interpolation-filters:sRGB;"
       inkscape:label="Drop Shadow"
       id="filter19"
       x="-0.01943401"
       y="-0.016530863"
       width="1.038868"
       height="1.0399496"><feFlood
         result="flood"
         in="SourceGraphic"
         flood-opacity="0.474510"
         flood-color="rgb(0,0,0)"
         id="feFlood18" /><feGaussianBlur
         result="blur"
         in="SourceGraphic"
         stdDeviation="1.000000"
         id="feGaussianBlur18" /><feOffset
         result="offset"
         in="blur"
         dx="-0.000000"
         dy="1.000000"
         id="feOffset18" /><feComposite
         result="comp1"
         operator="in"
         in="flood"
         in2="offset"
         id="feComposite18" /><feComposite
         result="comp2"
         operator="over"
         in="SourceGraphic"
         in2="comp1"
         id="feComposite19" /></filter><linearGradient
       inkscape:collect="always"
       xlink:href="#linearGradient23"
       id="linearGradient19"
       gradientUnits="userSpaceOnUse"
       gradientTransform="rotate(-146.50837,120.98892,41.539944)"
       x1="154.1134"
       y1="56.389175"
       x2="176.56702"
       y2="30.618557" /><linearGradient
       inkscape:collect="always"
       xlink:href="#linearGradient21"
       id="linearGradient20"
       gradientUnits="userSpaceOnUse"
       gradientTransform="translate(-95.177291,12.737607)"
       x1="154.1134"
       y1="56.389175"
       x2="176.56702"
       y2="30.618557" /><linearGradient
       inkscape:collect="always"
       xlink:href="#linearGradient9"
       id="linearGradient24"
       gradientUnits="userSpaceOnUse"
       gradientTransform="rotate(-8.174525,77.6073,780.62864)"
       x1="154.1134"
       y1="56.389175"
       x2="176.56702"
       y2="30.618557" /><linearGradient
       inkscape:collect="always"
       xlink:href="#linearGradient15"
       id="linearGradient25"
       gradientUnits="userSpaceOnUse"
       gradientTransform="rotate(152.71144,114.62656,31.522434)"
       x1="154.1134"
       y1="56.389175"
       x2="176.56702"
       y2="30.618557" /><linearGradient
       inkscape:collect="always"
       xlink:href="#linearGradient23"
       id="linearGradient26"
       gradientUnits="userSpaceOnUse"
       gradientTransform="rotate(132.36257,109.27145,9.8742037)"
       x1="154.1134"
       y1="56.389175"
       x2="176.56702"
       y2="30.618557" /><linearGradient
       inkscape:collect="always"
       xlink:href="#linearGradient21"
       id="linearGradient27"
       gradientUnits="userSpaceOnUse"
       gradientTransform="translate(-84.654593,-27.844676)"
       x1="154.1134"
       y1="56.389175"
       x2="176.56702"
       y2="30.618557" /><linearGradient
       inkscape:collect="always"
       xlink:href="#linearGradient17"
       id="linearGradient28"
       gradientUnits="userSpaceOnUse"
       gradientTransform="rotate(0.91453366,-4231.1569,-6916.7533)"
       x1="154.1134"
       y1="56.389175"
       x2="176.56702"
       y2="30.618557" /><linearGradient
       inkscape:collect="always"
       xlink:href="#linearGradient17"
       id="linearGradient29"
       gradientUnits="userSpaceOnUse"
       gradientTransform="rotate(0.91453366,-4257.1125,-5749.3838)"
       x1="154.1134"
       y1="56.389175"
       x2="176.56702"
       y2="30.618557" /><linearGradient
       inkscape:collect="always"
       xlink:href="#linearGradient17"
       id="linearGradient30"
       gradientUnits="userSpaceOnUse"
       gradientTransform="rotate(0.91453366,-4198.5505,-4575.3245)"
       x1="154.1134"
       y1="56.389175"
       x2="176.56702"
       y2="30.618557" /></defs><g
     inkscape:label="Layer 1"
     inkscape:groupmode="layer"
     id="layer1"><path
       id="path4"
       style="fill:url(#linearGradient10);fill-opacity:1;stroke:none;stroke-width:1.1;stroke-linecap:round;stroke-linejoin:round;paint-order:stroke markers fill"
       d="m 83.704366,24.780882 a 8.0373716,8.0373716 0 0 0 -9.875109,5.628181 8.0373716,8.0373716 0 0 0 0.338799,5.178654 l -0.07475,-0.02047 3.253771,12.42074 9.130022,-9.028355 -0.07475,-0.02047 a 8.0373716,8.0373716 0 0 0 2.930714,-4.28301 8.0373716,8.0373716 0 0 0 -5.628686,-9.875254 z" /><path
       id="path4-5"
       style="fill:url(#linearGradient13);fill-opacity:1;stroke:none;stroke-width:1.1;stroke-linecap:round;stroke-linejoin:round;paint-order:stroke markers fill"
       d="m 56.470161,3.1603659 a 8.0373716,8.0373716 0 0 0 -4.805318,10.3006311 8.0373716,8.0373716 0 0 0 3.269753,4.030133 l -0.07283,0.0265 9.834422,8.255059 2.231988,-12.644634 -0.07283,0.0265 A 8.0373716,8.0373716 0 0 0 66.771316,7.9655082 8.0373716,8.0373716 0 0 0 56.470183,3.1603709 Z" /><path
       id="path4-5-2"
       style="fill:url(#linearGradient28);fill-opacity:1;stroke:none;stroke-width:1.1;stroke-linecap:round;stroke-linejoin:round;paint-order:stroke markers fill"
       d="m 47.952206,104.40431 a 8.0373716,8.0373716 0 0 0 -8.164486,7.90792 8.0373716,8.0373716 0 0 0 1.616474,4.93155 l -0.07749,-0.001 6.241459,11.22079 6.596947,-11.01585 -0.07749,-0.001 a 8.0373716,8.0373716 0 0 0 1.773065,-4.87745 8.0373716,8.0373716 0 0 0 -7.908455,-8.1645 z" /><path
       id="path4-5-4"
       style="fill:url(#linearGradient29);fill-opacity:1;stroke:none;stroke-width:1.1;stroke-linecap:round;stroke-linejoin:round;paint-order:stroke markers fill"
       d="m 66.58122,104.96729 a 8.0373716,8.0373716 0 0 0 -8.164486,7.90792 8.0373716,8.0373716 0 0 0 1.616475,4.93156 l -0.07749,-0.001 6.24146,11.22079 6.596942,-11.01584 -0.07749,-0.001 a 8.0373716,8.0373716 0 0 0 1.773068,-4.87746 8.0373716,8.0373716 0 0 0 -7.908455,-8.16449 z" /><path
       id="path4-5-3"
       style="fill:url(#linearGradient30);fill-opacity:1;stroke:none;stroke-width:1.1;stroke-linecap:round;stroke-linejoin:round;paint-order:stroke markers fill"
       d="m 85.327778,104.18214 a 8.0373716,8.0373716 0 0 0 -8.164486,7.90792 8.0373716,8.0373716 0 0 0 1.616474,4.93156 l -0.07749,-0.001 6.24146,11.22078 6.596943,-11.01584 -0.07749,-0.001 a 8.0373716,8.0373716 0 0 0 1.773065,-4.87744 8.0373716,8.0373716 0 0 0 -7.908455,-8.1645 z" /><path
       id="path4-7"
       style="fill:url(#linearGradient14);fill-opacity:1;stroke:none;stroke-width:1.1;stroke-linecap:round;stroke-linejoin:round;paint-order:stroke markers fill"
       d="m 32.815698,6.8463458 a 8.0373716,8.0373716 0 0 0 -5.567736,9.9093292 8.0373716,8.0373716 0 0 0 2.95682,4.265018 l -0.07461,0.02098 9.184521,8.972542 3.178313,-12.440536 -0.07463,0.0209 a 8.0373716,8.0373716 0 0 0 0.307161,-5.180623 8.0373716,8.0373716 0 0 0 -9.90983,-5.5676012 z" /><path
       id="path4-2"
       style="fill:url(#linearGradient19);fill-opacity:1;stroke:none;stroke-width:1.1;stroke-linecap:round;stroke-linejoin:round;paint-order:stroke markers fill"
       d="m 85.403588,25.582603 a 8.0373716,8.0373716 0 0 0 11.137849,-2.267718 8.0373716,8.0373716 0 0 0 1.293168,-5.026027 l 0.06464,0.04276 0.782174,-12.8160033 -11.490338,5.7306723 0.06464,0.04276 a 8.0373716,8.0373716 0 0 0 -4.120289,3.15539 8.0373716,8.0373716 0 0 0 2.268154,11.138144 z" /><path
       id="path4-7-2"
       style="fill:url(#linearGradient20);fill-opacity:1;stroke:none;stroke-width:1.1;stroke-linecap:round;stroke-linejoin:round;paint-order:stroke markers fill"
       d="m 64.294109,47.948893 a 8.0373716,8.0373716 0 0 0 -8.03724,8.037244 8.0373716,8.0373716 0 0 0 1.69498,4.90512 l -0.0775,5e-5 6.41976,11.11974 6.42028,-11.11974 -0.0775,-3e-5 a 8.0373716,8.0373716 0 0 0 1.69499,-4.90512 8.0373716,8.0373716 0 0 0 -8.03776,-8.037247 z" /><path
       id="path4-9"
       style="fill:url(#linearGradient24);fill-opacity:1;stroke:none;stroke-width:1.1;stroke-linecap:round;stroke-linejoin:round;paint-order:stroke markers fill"
       d="m 52.649594,31.144889 a 8.0373716,8.0373716 0 0 0 -6.812763,9.098379 8.0373716,8.0373716 0 0 0 2.375213,4.614284 l -0.07671,0.01103 7.935634,10.093931 4.773946,-11.919641 -0.07671,0.01102 a 8.0373716,8.0373716 0 0 0 0.980315,-5.096291 8.0373716,8.0373716 0 0 0 -9.098899,-6.812698 z" /><path
       id="path4-7-3"
       style="fill:url(#linearGradient25);fill-opacity:1;stroke:none;stroke-width:1.1;stroke-linecap:round;stroke-linejoin:round;paint-order:stroke markers fill"
       d="m 73.081111,48.80425 a 8.0373716,8.0373716 0 0 0 3.457916,-10.827616 8.0373716,8.0373716 0 0 0 -3.755204,-3.582122 l 0.06885,-0.03558 -10.803387,-6.938931 -0.60767,12.82573 0.06889,-0.03551 a 8.0373716,8.0373716 0 0 0 0.742508,5.136329 8.0373716,8.0373716 0 0 0 10.828078,3.457678 z" /><path
       id="path4-2-0"
       style="fill:url(#linearGradient26);fill-opacity:1;stroke:none;stroke-width:1.1;stroke-linecap:round;stroke-linejoin:round;paint-order:stroke markers fill"
       d="M 56.724181,29.894111 A 8.0373716,8.0373716 0 0 0 56.201148,18.539788 8.0373716,8.0373716 0 0 0 51.434659,16.487029 l 0.05221,-0.05727 -12.542085,-2.749164 3.890211,12.236614 0.05221,-0.05727 a 8.0373716,8.0373716 0 0 0 2.48226,4.557592 8.0373716,8.0373716 0 0 0 11.354681,-0.523417 z" /><path
       id="path4-7-2-3"
       style="fill:url(#linearGradient27);fill-opacity:1;stroke:none;stroke-width:1.1;stroke-linecap:round;stroke-linejoin:round;paint-order:stroke markers fill"
       d="m 74.816807,7.3666115 a 8.0373716,8.0373716 0 0 0 -8.03724,8.0372425 8.0373716,8.0373716 0 0 0 1.69498,4.90512 l -0.0775,5e-5 6.41976,11.11974 6.42028,-11.11974 -0.0775,-3e-5 a 8.0373716,8.0373716 0 0 0 1.69499,-4.90512 8.0373716,8.0373716 0 0 0 -8.03776,-8.0372455 z" /><path
       d="m 60.181655,101.50489 q -2.83527,0 -4.96178,-2.037974 -2.12651,-2.037851 -2.12651,-4.873113 V 62.873516 L 21.638845,22.558677 q -2.5252,-3.145488 -0.77519,-6.756014 1.7499,-3.610671 5.8257,-3.610671 h 77.617275 q 4.0758,0 5.82569,3.610671 1.74989,3.610526 -0.77518,6.756014 L 77.902635,62.873516 V 95.12542 q 0,2.791022 -1.88275,4.585243 -1.88286,1.794227 -4.67389,1.794227 z"
       id="path1"
       style="fill:#d3d3d3;fill-opacity:0.67500001;stroke-width:0.0110243" /></g></svg>
