<svg xmlns="http://www.w3.org/2000/svg" height="40" viewBox="0 -960 960 960" width="40"><path d="M285.334-622.334v-82.999h575.999v82.999H285.334Zm0 183.667v-83.666h575.999v83.666H285.334Zm0 183v-82.999h575.999v82.999H285.334ZM142.333-618.334q-18.708 0-31.187-13.333Q98.667-645 98.667-663.5q0-17.833 12.479-31 12.479-13.166 31.521-13.166 17.708 0 30.187 13.137 12.479 13.138 12.479 31.862 0 17.667-12.562 31-12.563 13.333-30.438 13.333Zm0 182.667q-18.708 0-31.187-12.833-12.479-12.833-12.479-31.5 0-18.316 12.479-31.658Q123.625-525 142.667-525q17.708 0 30.187 13.425 12.479 13.425 12.479 31.908 0 18.334-12.562 31.167-12.563 12.833-30.438 12.833Zm0 182.333q-18.708 0-31.187-13.333Q98.667-280 98.667-298.5t12.479-31.333q12.479-12.833 31.521-12.833 17.708 0 30.187 12.916 12.479 12.917 12.479 31.583 0 18.167-12.562 31.5-12.563 13.333-30.438 13.333Z"/></svg>