<?xml version="1.0" encoding="UTF-8" standalone="no"?>
<!-- Created with Inkscape (http://www.inkscape.org/) -->

<svg
   width="512"
   height="512"
   viewBox="0 0 135.46666 135.46667"
   version="1.1"
   id="svg1"
   inkscape:version="1.3 (0e150ed6c4, 2023-07-21)"
   sodipodi:docname="homepage_findmap.svg"
   xmlns:inkscape="http://www.inkscape.org/namespaces/inkscape"
   xmlns:sodipodi="http://sodipodi.sourceforge.net/DTD/sodipodi-0.dtd"
   xmlns:xlink="http://www.w3.org/1999/xlink"
   xmlns="http://www.w3.org/2000/svg"
   xmlns:svg="http://www.w3.org/2000/svg">
  <sodipodi:namedview
     id="namedview1"
     pagecolor="#ffffff"
     bordercolor="#000000"
     borderopacity="0.25"
     inkscape:showpageshadow="2"
     inkscape:pageopacity="0.0"
     inkscape:pagecheckerboard="0"
     inkscape:deskcolor="#d1d1d1"
     inkscape:document-units="mm"
     inkscape:zoom="1.0369529"
     inkscape:cx="569.93912"
     inkscape:cy="343.31358"
     inkscape:window-width="1952"
     inkscape:window-height="992"
     inkscape:window-x="0"
     inkscape:window-y="0"
     inkscape:window-maximized="0"
     inkscape:current-layer="layer1" />
  <defs
     id="defs1">
    <linearGradient
       id="linearGradient17"
       inkscape:collect="always">
      <stop
         style="stop-color:#995ba3;stop-opacity:1;"
         offset="0"
         id="stop16" />
      <stop
         style="stop-color:#ffffff;stop-opacity:1;"
         offset="1"
         id="stop17" />
    </linearGradient>
    <linearGradient
       id="linearGradient15"
       inkscape:collect="always">
      <stop
         style="stop-color:#5ba36d;stop-opacity:1;"
         offset="0"
         id="stop14" />
      <stop
         style="stop-color:#ffffff;stop-opacity:1;"
         offset="1"
         id="stop15" />
    </linearGradient>
    <linearGradient
       id="linearGradient9"
       inkscape:collect="always">
      <stop
         style="stop-color:#a35b5b;stop-opacity:1;"
         offset="0"
         id="stop9" />
      <stop
         style="stop-color:#ffffff;stop-opacity:1;"
         offset="1"
         id="stop10" />
    </linearGradient>
    <linearGradient
       id="linearGradient8"
       inkscape:collect="always">
      <stop
         style="stop-color:#002dff;stop-opacity:1;"
         offset="0"
         id="stop7" />
      <stop
         style="stop-color:#ffffff;stop-opacity:1;"
         offset="1"
         id="stop8" />
    </linearGradient>
    <linearGradient
       id="linearGradient5"
       inkscape:collect="always">
      <stop
         style="stop-color:#002dff;stop-opacity:1;"
         offset="0"
         id="stop5" />
      <stop
         style="stop-color:#ffffff;stop-opacity:1;"
         offset="1"
         id="stop6" />
    </linearGradient>
    <linearGradient
       inkscape:collect="always"
       xlink:href="#linearGradient5"
       id="linearGradient6"
       x1="96.193298"
       y1="104.35825"
       x2="142.63144"
       y2="65.06443"
       gradientUnits="userSpaceOnUse"
       gradientTransform="translate(-35.721649,-21.43299)" />
    <linearGradient
       inkscape:collect="always"
       xlink:href="#linearGradient8"
       id="linearGradient7"
       x1="96.193298"
       y1="104.35825"
       x2="142.63144"
       y2="65.06443"
       gradientUnits="userSpaceOnUse"
       gradientTransform="translate(-35.721649,-21.43299)" />
    <linearGradient
       inkscape:collect="always"
       xlink:href="#linearGradient9"
       id="linearGradient10"
       x1="154.1134"
       y1="56.389175"
       x2="176.56702"
       y2="30.618557"
       gradientUnits="userSpaceOnUse"
       gradientTransform="translate(-45.927835,-18.881443)" />
    <linearGradient
       inkscape:collect="always"
       xlink:href="#linearGradient17"
       id="linearGradient13"
       gradientUnits="userSpaceOnUse"
       x1="154.1134"
       y1="56.389175"
       x2="176.56702"
       y2="30.618557"
       gradientTransform="translate(-139.99282,6.7868233)" />
    <linearGradient
       inkscape:collect="always"
       xlink:href="#linearGradient15"
       id="linearGradient14"
       gradientUnits="userSpaceOnUse"
       x1="154.1134"
       y1="56.389175"
       x2="176.56702"
       y2="30.618557"
       gradientTransform="translate(-61.555905,49.151341)" />
  </defs>
  <g
     inkscape:label="Layer 1"
     inkscape:groupmode="layer"
     id="layer1">
    <path
       id="path1"
       style="fill:url(#linearGradient6);fill-opacity:1;stroke:none;stroke-width:1.1;stroke-linecap:round;stroke-linejoin:round;paint-order:stroke markers fill"
       d="m 81.534241,79.65283 c -10e-4,-0.16662 -0.004,-0.33289 -0.0124,-0.49764 -0.01,-0.18957 -0.0235,-0.37743 -0.0424,-0.56431 -0.0189,-0.186882 -0.0423,-0.372587 -0.0703,-0.556556 -0.028,-0.183969 -0.0603,-0.366425 -0.0971,-0.547254 -0.0368,-0.180828 -0.0781,-0.359975 -0.1235,-0.537435 -0.0455,-0.177459 -0.0955,-0.353238 -0.14935,-0.527099 -0.0538,-0.173862 -0.11161,-0.345697 -0.17363,-0.515731 -0.062,-0.170035 -0.12795,-0.338383 -0.19792,-0.504362 -0.07,-0.165979 -0.14401,-0.329749 -0.22169,-0.491443 -0.0777,-0.161694 -0.15926,-0.321343 -0.24443,-0.478524 -0.0852,-0.157181 -0.17422,-0.311615 -0.26665,-0.464054 -0.0924,-0.152439 -0.18838,-0.302634 -0.28784,-0.450102 -0.0995,-0.147468 -0.20224,-0.29233 -0.30851,-0.434599 -0.10626,-0.142268 -0.21582,-0.281739 -0.32866,-0.418579 -0.11284,-0.13684 -0.22912,-0.271376 -0.3483,-0.402559 -0.11918,-0.131183 -0.24109,-0.259176 -0.36639,-0.384473 -0.12529,-0.125296 -0.2538,-0.247721 -0.38499,-0.366902 -0.13118,-0.119182 -0.2652,-0.235462 -0.40204,-0.3483 -0.13684,-0.112837 -0.27631,-0.222396 -0.41858,-0.328662 -0.14227,-0.106265 -0.28765,-0.209044 -0.43511,-0.308508 -0.14747,-0.09946 -0.29715,-0.195404 -0.44959,-0.287838 -0.15244,-0.09243 -0.30739,-0.181475 -0.46457,-0.26665 -0.15718,-0.08518 -0.31683,-0.166743 -0.47852,-0.24443 -0.1617,-0.07769 -0.32547,-0.151205 -0.49145,-0.221175 -0.16598,-0.06997 -0.33381,-0.135896 -0.50384,-0.19792 -0.17004,-0.06202 -0.34239,-0.1203 -0.51625,-0.17415 -0.17386,-0.05385 -0.34964,-0.103381 -0.5271,-0.148828 -0.17746,-0.04545 -0.35661,-0.08669 -0.53743,-0.123507 -0.18083,-0.03682 -0.36329,-0.0692 -0.54726,-0.09715 -0.18397,-0.02795 -0.36915,-0.05141 -0.55604,-0.07028 -0.18688,-0.01887 -0.37526,-0.03335 -0.56482,-0.04289 -0.18956,-0.0095 -0.38056,-0.01447 -0.57257,-0.01447 h -5.11907 c -0.19202,0 -0.3825,0.0049 -0.57206,0.01447 -0.18956,0.0095 -0.37794,0.02403 -0.564823,0.04289 -0.18688,0.01886 -0.372586,0.04232 -0.556555,0.07028 -0.183969,0.02795 -0.366425,0.06034 -0.547253,0.09715 -0.180829,0.03682 -0.359976,0.07806 -0.537435,0.123507 -0.177459,0.04545 -0.353238,0.09498 -0.5271,0.148828 -0.173861,0.05385 -0.345696,0.112125 -0.51573,0.17415 -0.170035,0.06202 -0.338384,0.12795 -0.504362,0.19792 -0.165979,0.06997 -0.329749,0.143489 -0.491443,0.221175 -0.161695,0.07769 -0.321343,0.159255 -0.478524,0.24443 -0.157181,0.08517 -0.311615,0.174217 -0.464054,0.26665 -0.15244,0.09243 -0.302634,0.188374 -0.450102,0.287838 -0.147468,0.09946 -0.29233,0.202243 -0.434599,0.308508 -0.142268,0.106266 -0.281739,0.215825 -0.418579,0.328662 -0.13684,0.112838 -0.271377,0.229118 -0.402559,0.3483 -0.131183,0.119181 -0.259177,0.241606 -0.384473,0.366902 -0.125297,0.125297 -0.247721,0.25329 -0.366903,0.384473 -0.119181,0.131183 -0.234944,0.265719 -0.347782,0.402559 -0.112838,0.13684 -0.222914,0.276311 -0.329179,0.418579 -0.106265,0.142269 -0.209045,0.287131 -0.308508,0.434599 -0.09946,0.147468 -0.195404,0.297663 -0.287838,0.450102 -0.09243,0.152439 -0.181476,0.306873 -0.26665,0.464054 -0.08517,0.157181 -0.166226,0.31683 -0.243913,0.478524 -0.07769,0.161694 -0.151722,0.325464 -0.221692,0.491443 -0.06997,0.165979 -0.135896,0.334327 -0.197921,0.504362 -0.06203,0.170034 -0.120299,0.341869 -0.174149,0.515731 -0.05385,0.173861 -0.103381,0.34964 -0.148829,0.527099 -0.04545,0.17746 -0.08669,0.356607 -0.123506,0.537435 -0.03682,0.180829 -0.0692,0.363285 -0.09715,0.547254 -0.02795,0.183969 -0.05141,0.369674 -0.07028,0.556556 -0.01887,0.18688 -0.03334,0.37474 -0.04289,0.56431 -0.0095,0.18956 -0.01447,0.38055 -0.01447,0.57257 v 0.7059 a 18.753866,18.753866 0 0 0 13.253971,5.55367 18.753866,18.753866 0 0 0 14.04565,-6.3345 z" />
    <path
       id="path3"
       style="fill:#d6d6d6;fill-opacity:1;stroke:none;stroke-width:1.1;stroke-linecap:round;stroke-linejoin:round;stroke-opacity:1;paint-order:stroke markers fill"
       d="M 67.488591,48.479538 A 18.753866,18.753866 0 0 0 48.734695,67.233433 18.753866,18.753866 0 0 0 54.234617,80.43366 v -0.7059 c 0,-0.19202 0.0049,-0.38301 0.01447,-0.57257 0.0095,-0.18957 0.02403,-0.37743 0.04289,-0.56431 0.01887,-0.186882 0.04233,-0.372587 0.07028,-0.556556 0.02796,-0.183969 0.06034,-0.366425 0.09715,-0.547254 0.03681,-0.180828 0.07806,-0.359975 0.123506,-0.537435 0.04545,-0.177459 0.09498,-0.353238 0.148829,-0.527099 0.05385,-0.173862 0.112124,-0.345697 0.174149,-0.515731 0.06202,-0.170035 0.127951,-0.338383 0.197921,-0.504362 0.06997,-0.165979 0.144005,-0.329749 0.221692,-0.491443 0.07769,-0.161694 0.158738,-0.321343 0.243913,-0.478524 0.08517,-0.157181 0.174216,-0.311615 0.26665,-0.464054 0.09243,-0.152439 0.188374,-0.302634 0.287838,-0.450102 0.09946,-0.147468 0.202243,-0.29233 0.308508,-0.434599 0.106265,-0.142268 0.216341,-0.281739 0.329179,-0.418579 0.112838,-0.13684 0.228601,-0.271376 0.347782,-0.402559 0.119182,-0.131183 0.241606,-0.259176 0.366903,-0.384473 0.125296,-0.125296 0.25329,-0.247721 0.384473,-0.366902 0.131182,-0.119182 0.265719,-0.235462 0.402559,-0.3483 0.13684,-0.112837 0.276311,-0.222396 0.418579,-0.328662 0.142269,-0.106265 0.287131,-0.209044 0.434599,-0.308508 0.147468,-0.09946 0.297662,-0.195404 0.450102,-0.287838 0.152439,-0.09243 0.306873,-0.181475 0.464054,-0.26665 0.157181,-0.08518 0.316829,-0.166743 0.478524,-0.24443 0.161694,-0.07769 0.325464,-0.151205 0.491443,-0.221175 0.165978,-0.06997 0.334327,-0.135896 0.504362,-0.19792 0.170034,-0.06202 0.341869,-0.1203 0.51573,-0.17415 0.173862,-0.05385 0.349641,-0.103381 0.5271,-0.148828 0.177459,-0.04545 0.356606,-0.08669 0.537435,-0.123507 0.180828,-0.03682 0.363284,-0.0692 0.547253,-0.09715 0.183969,-0.02795 0.369675,-0.05141 0.556555,-0.07028 0.186886,-0.01887 0.375266,-0.03335 0.564826,-0.04289 0.18956,-0.0095 0.38004,-0.01447 0.57206,-0.01447 h 5.11907 c 0.19201,0 0.38301,0.0049 0.57257,0.01447 0.18956,0.0095 0.37794,0.02403 0.56482,0.04289 0.18689,0.01886 0.37207,0.04232 0.55604,0.07028 0.18397,0.02795 0.36643,0.06034 0.54726,0.09715 0.18082,0.03682 0.35997,0.07806 0.53743,0.123507 0.17746,0.04545 0.35324,0.09498 0.5271,0.148828 0.17386,0.05385 0.34621,0.112125 0.51625,0.17415 0.17003,0.06202 0.33786,0.12795 0.50384,0.19792 0.16598,0.06997 0.32975,0.143489 0.49145,0.221175 0.16169,0.07769 0.32134,0.159255 0.47852,0.24443 0.15718,0.08517 0.31213,0.174217 0.46457,0.26665 0.15244,0.09243 0.30212,0.188374 0.44959,0.287838 0.14746,0.09946 0.29284,0.202243 0.43511,0.308508 0.14227,0.106266 0.28174,0.215825 0.41858,0.328662 0.13684,0.112838 0.27086,0.229118 0.40204,0.3483 0.13119,0.119181 0.2597,0.241606 0.38499,0.366902 0.1253,0.125297 0.24721,0.25329 0.36639,0.384473 0.11918,0.131183 0.23546,0.265719 0.3483,0.402559 0.11284,0.13684 0.2224,0.276311 0.32866,0.418579 0.10627,0.142269 0.20904,0.287131 0.30851,0.434599 0.0995,0.147468 0.1954,0.297663 0.28784,0.450102 0.0924,0.152439 0.18147,0.306873 0.26665,0.464054 0.0852,0.157181 0.16674,0.31683 0.24443,0.478524 0.0777,0.161694 0.15172,0.325464 0.22169,0.491443 0.07,0.165979 0.13589,0.334327 0.19792,0.504362 0.062,0.170034 0.11978,0.341869 0.17363,0.515731 0.0538,0.173861 0.1039,0.34964 0.14935,0.527099 0.0454,0.17746 0.0867,0.356607 0.1235,0.537435 0.0368,0.180829 0.0692,0.363285 0.0971,0.547254 0.028,0.183969 0.0514,0.369674 0.0703,0.556556 0.0189,0.18688 0.0328,0.37474 0.0424,0.56431 0.008,0.16475 0.0113,0.33102 0.0124,0.49764 a 18.753866,18.753866 0 0 0 4.70824,-12.419397 18.753866,18.753866 0 0 0 -18.75389,-18.753895 z" />
    <circle
       style="fill:url(#linearGradient7);fill-opacity:1;stroke:none;stroke-width:1.1;stroke-linecap:round;stroke-linejoin:round;paint-order:stroke markers fill"
       id="path2"
       cx="67.88443"
       cy="59.451027"
       r="6.1237111" />
    <path
       id="path4"
       style="fill:url(#linearGradient10);fill-opacity:1;stroke:none;stroke-width:1.1;stroke-linecap:round;stroke-linejoin:round;paint-order:stroke markers fill"
       d="m 113.54356,16.329844 a 8.0373716,8.0373716 0 0 0 -8.03723,8.037236 8.0373716,8.0373716 0 0 0 1.69498,4.905127 h -0.0775 l 6.41976,11.119735 6.42028,-11.119735 h -0.0775 a 8.0373716,8.0373716 0 0 0 1.69499,-4.905127 8.0373716,8.0373716 0 0 0 -8.03776,-8.037236 z" />
    <path
       id="path4-5"
       style="fill:url(#linearGradient13);fill-opacity:1;stroke:none;stroke-width:1.1;stroke-linecap:round;stroke-linejoin:round;paint-order:stroke markers fill"
       d="m 19.478578,41.99811 a 8.0373716,8.0373716 0 0 0 -8.03723,8.037233 8.0373716,8.0373716 0 0 0 1.69498,4.90513 h -0.0775 l 6.41976,11.11974 6.42028,-11.11974 h -0.0775 a 8.0373716,8.0373716 0 0 0 1.69499,-4.90513 8.0373716,8.0373716 0 0 0 -8.03776,-8.037233 z" />
    <path
       id="path4-7"
       style="fill:url(#linearGradient14);fill-opacity:1;stroke:none;stroke-width:1.1;stroke-linecap:round;stroke-linejoin:round;paint-order:stroke markers fill"
       d="m 97.915491,84.36263 a 8.0373716,8.0373716 0 0 0 -8.03723,8.03724 8.0373716,8.0373716 0 0 0 1.69498,4.90512 h -0.0775 l 6.41976,11.11974 6.420279,-11.11974 h -0.0775 a 8.0373716,8.0373716 0 0 0 1.69499,-4.90512 8.0373716,8.0373716 0 0 0 -8.037759,-8.03724 z" />
  </g>
</svg>
